<svg width="20" height="18" viewBox="0 0 20 18" fill="none" xmlns="http://www.w3.org/2000/svg">
<g clip-path="url(#clip0_60_7830)">
<path d="M18.41 1.74C17.38 0.62 15.96 0 14.41 0C13.26 0 12.2 0.36 11.27 1.08C10.8 1.45 10.38 1.89 10 2.41C9.62 1.89 9.2 1.45 8.73 1.08C7.8 0.36 6.74 0 5.59 0C4.05 0 2.62 0.62 1.59 1.74C0.56 2.85 0 4.37 0 6.01C0 7.7 0.63 9.25 1.98 10.88C3.19 12.34 4.93 13.82 6.95 15.54C7.64 16.13 8.42 16.79 9.23 17.5C9.44 17.69 9.72 17.79 10 17.79C10.28 17.79 10.56 17.69 10.77 17.5C11.58 16.79 12.36 16.13 13.05 15.54C15.06 13.82 16.8 12.34 18.02 10.88C19.37 9.25 20 7.7 20 6.01C20 4.37 19.44 2.85 18.41 1.74Z" fill="#FF5757"/>
</g>
<defs>
<clipPath id="clip0_60_7830">
<rect width="20" height="17.79" fill="white"/>
</clipPath>
</defs>
</svg>
