<svg width="20" height="20" viewBox="0 0 20 20" fill="none" xmlns="http://www.w3.org/2000/svg">
<g clip-path="url(#clip0_60_7832)">
<path d="M0 1.95312V14.2914C0 15.3699 0.874609 16.2445 1.95312 16.2445H3.11875V18.4668C3.11875 19.105 3.84297 19.4742 4.35938 19.0988L8.2875 16.2445H18.0469C19.1254 16.2445 20 15.3699 20 14.2914V1.95312C20 0.874608 19.1254 0 18.0469 0H1.95312C0.874609 0 0 0.874608 0 1.95312ZM14.9531 11.443H5.04688C4.725 11.443 4.46406 11.182 4.46406 10.8601V10.8543C4.46406 10.5324 4.725 10.2715 5.04688 10.2715H14.9531C15.275 10.2715 15.5359 10.5324 15.5359 10.8543V10.8601C15.5359 11.182 15.275 11.443 14.9531 11.443ZM5.66406 8.12655V8.1203C5.66406 7.79843 5.925 7.53749 6.24687 7.53749H13.7531C14.075 7.53749 14.3359 7.79843 14.3359 8.1203V8.12655C14.3359 8.44842 14.075 8.70936 13.7531 8.70936H6.24687C5.925 8.70936 5.66406 8.44842 5.66406 8.12655ZM14.9531 5.98163H5.04688C4.725 5.98163 4.46406 5.72069 4.46406 5.39882V5.39296C4.46406 5.07109 4.725 4.81015 5.04688 4.81015H14.9531C15.275 4.81015 15.5359 5.07109 15.5359 5.39296V5.39882C15.5359 5.72069 15.275 5.98163 14.9531 5.98163Z" fill="white"/>
</g>
<defs>
<clipPath id="clip0_60_7832">
<rect width="20" height="19.2492" fill="white"/>
</clipPath>
</defs>
</svg>
