<svg width="20" height="18" viewBox="0 0 20 18" fill="none" xmlns="http://www.w3.org/2000/svg">
<g clip-path="url(#clip0_60_7827)">
<path d="M19.79 5.93L14.08 0.22C13.93 0.07 13.76 0 13.57 0C13.38 0 13.21 0.07 13.07 0.21C12.93 0.35 12.86 0.52 12.86 0.71V3.57H10.36C5.05 3.57 1.8 5.07 0.59 8.07C0.2 9.07 0 10.31 0 11.79C0 13.03 0.47 14.7 1.42 16.82C1.44 16.87 1.48 16.96 1.54 17.09C1.6 17.22 1.65 17.33 1.69 17.42C1.73 17.52 1.78 17.6 1.84 17.67C1.93 17.8 2.03 17.86 2.15 17.86C2.26 17.86 2.35 17.82 2.41 17.75C2.47 17.68 2.5 17.58 2.5 17.47C2.5 17.4 2.49 17.3 2.47 17.17C2.45 17.04 2.44 16.95 2.44 16.91C2.4 16.4 2.38 15.95 2.38 15.54C2.38 14.79 2.45 14.12 2.58 13.52C2.71 12.92 2.89 12.41 3.12 11.97C3.35 11.53 3.65 11.16 4.01 10.84C4.37 10.52 4.77 10.27 5.19 10.06C5.61 9.86 6.11 9.7 6.67 9.59C7.25 9.48 7.82 9.4 8.4 9.35C8.98 9.31 9.63 9.28 10.36 9.28H12.86V12.14C12.86 12.33 12.93 12.5 13.07 12.64C13.21 12.78 13.38 12.85 13.57 12.85C13.76 12.85 13.93 12.78 14.07 12.64L19.78 6.93C19.93 6.79 20 6.62 20 6.43C20 6.24 19.93 6.07 19.79 5.93Z" fill="white"/>
</g>
<defs>
<clipPath id="clip0_60_7827">
<rect width="20" height="17.86" fill="white"/>
</clipPath>
</defs>
</svg>
