<svg width="20" height="20" viewBox="0 0 20 20" fill="none" xmlns="http://www.w3.org/2000/svg">
<g clip-path="url(#clip0_2811_2677)">
<path d="M20.0001 10C20.0001 11.9778 19.4135 13.9113 18.3147 15.5557C17.2159 17.2002 15.6542 18.482 13.8269 19.2388C11.9996 19.9957 9.98889 20.1937 8.04908 19.8079C6.10927 19.422 4.32748 18.4697 2.92896 17.0711C1.53043 15.6726 0.577995 13.8907 0.192143 11.9509C-0.193709 10.0111 0.00435829 8.00044 0.761235 6.17318C1.51811 4.34592 2.79985 2.78412 4.44434 1.6853C6.08883 0.586489 8.02219 0 10 0C10.1892 0 10.3706 0.0752084 10.5044 0.208984C10.6382 0.34276 10.7133 0.524191 10.7133 0.713379C10.7133 0.902567 10.6382 1.084 10.5044 1.21777C10.3706 1.35155 10.1892 1.42668 10 1.42668C8.30408 1.42536 6.64587 1.92708 5.23511 2.86833C3.82436 3.80957 2.72447 5.14806 2.07455 6.71452C1.42463 8.28097 1.25386 10.005 1.58391 11.6685C1.91396 13.332 2.72998 14.8602 3.92872 16.0599C5.12745 17.2596 6.65504 18.0768 8.31828 18.4081C9.98153 18.7395 11.7057 18.5701 13.2727 17.9214C14.8397 17.2727 16.179 16.1739 17.1213 14.7638C18.0637 13.3538 18.5667 11.6959 18.5667 10C18.557 9.90008 18.5684 9.79929 18.6 9.70402C18.6316 9.60874 18.6828 9.52109 18.7502 9.44678C18.8177 9.37246 18.9002 9.3131 18.9919 9.27246C19.0837 9.23182 19.1829 9.21086 19.2833 9.21086C19.3837 9.21086 19.483 9.23182 19.5748 9.27246C19.6666 9.3131 19.7488 9.37246 19.8163 9.44678C19.8838 9.52109 19.9351 9.60874 19.9667 9.70402C19.9983 9.79929 20.0097 9.90008 20.0001 10V10ZM12.58 1.81999C13.8861 2.23045 15.0747 2.94846 16.0457 3.91366C17.0167 4.87885 17.7418 6.06306 18.1601 7.3667C18.2039 7.50994 18.292 7.63555 18.4119 7.72542C18.5317 7.81529 18.677 7.86477 18.8267 7.8667C18.8972 7.88005 18.9695 7.88005 19.04 7.8667C19.1297 7.83938 19.2132 7.79443 19.2854 7.73454C19.3576 7.67464 19.4171 7.60098 19.4605 7.51782C19.504 7.43467 19.5304 7.34373 19.5383 7.25024C19.5462 7.15676 19.5354 7.06266 19.5066 6.97339V6.97339C19.0167 5.45451 18.1706 4.07487 17.0387 2.94987C15.9067 1.82487 14.5219 0.987144 13 0.506673C12.8232 0.434181 12.6249 0.434943 12.4486 0.508708C12.2723 0.582472 12.1325 0.723254 12.06 0.900065C11.9875 1.07688 11.9883 1.27521 12.062 1.4515C12.1358 1.62778 12.2766 1.76751 12.4534 1.84001H12.5667L12.58 1.81999ZM10 3.56673C9.90577 3.56585 9.81226 3.58361 9.72494 3.61906C9.63762 3.65451 9.55824 3.70695 9.4913 3.77327C9.42435 3.8396 9.37123 3.91855 9.33497 4.00553C9.2987 4.09252 9.28003 4.18579 9.28003 4.28003V10C9.28097 10.1892 9.35498 10.3708 9.48666 10.5067L12.48 13.5C12.6168 13.6324 12.7997 13.7064 12.99 13.7064C13.1803 13.7064 13.3632 13.6324 13.5 13.5C13.5669 13.4337 13.6201 13.3548 13.6563 13.2678C13.6926 13.1809 13.7112 13.0875 13.7112 12.9933C13.7112 12.8991 13.6926 12.8059 13.6563 12.7189C13.6201 12.6319 13.5669 12.553 13.5 12.4867L10.7133 9.71338V4.2867C10.7133 4.09751 10.6382 3.91608 10.5044 3.78231C10.3706 3.64853 10.1892 3.57332 10 3.57332V3.56673Z" fill="#292C3E"/>
</g>
<defs>
<clipPath id="clip0_2811_2677">
<rect width="20" height="20" fill="white"/>
</clipPath>
</defs>
</svg>
