<svg width="12" height="12" viewBox="0 0 12 12" fill="none" xmlns="http://www.w3.org/2000/svg">
<path d="M0.75 9.18502V10.9584C0.75 11.1217 0.878333 11.25 1.04167 11.25H2.815C2.89083 11.25 2.96667 11.2209 3.01917 11.1625L9.38917 4.79836L7.20167 2.61086L0.8375 8.97502C0.779167 9.03336 0.75 9.10335 0.75 9.18502ZM11.0808 2.28419L9.71583 0.919189C9.66187 0.865111 9.59777 0.822209 9.5272 0.792936C9.45663 0.763664 9.38098 0.748596 9.30458 0.748596C9.22819 0.748596 9.15254 0.763664 9.08197 0.792936C9.0114 0.822209 8.9473 0.865111 8.89333 0.919189L7.82583 1.98669L10.0133 4.17419L11.0808 3.10669C11.1349 3.05272 11.1778 2.98862 11.2071 2.91805C11.2364 2.84748 11.2514 2.77184 11.2514 2.69544C11.2514 2.61904 11.2364 2.54339 11.2071 2.47282C11.1778 2.40226 11.1349 2.33815 11.0808 2.28419Z" fill="white"/>
</svg>
