<svg width="24" height="20" viewBox="0 0 24 20" fill="none" xmlns="http://www.w3.org/2000/svg">
<g clip-path="url(#clip0_2811_2688)">
<path d="M23.026 8.93322H21.026C20.6141 8.56491 20.1516 8.25736 19.6527 8.01989C20.2701 7.58195 20.7644 6.99255 21.0882 6.30838C21.4121 5.62421 21.5546 4.86827 21.502 4.11315C21.4493 3.35803 21.2033 2.62913 20.7876 1.99653C20.3719 1.36393 19.8005 0.848932 19.1283 0.500927C18.456 0.152922 17.7057 -0.0163586 16.9492 0.00939028C16.1927 0.0351391 15.4554 0.255075 14.8084 0.647981C14.1614 1.04089 13.6264 1.59356 13.2547 2.25296C12.883 2.91236 12.6872 3.65625 12.686 4.4132C12.6823 5.5388 13.1119 6.62267 13.8859 7.43989H10.6393C11.1313 6.91503 11.4875 6.27784 11.6769 5.58385C11.8663 4.88986 11.8832 4.16014 11.7261 3.45812C11.569 2.7561 11.2427 2.10311 10.7756 1.55602C10.3084 1.00894 9.71479 0.584359 9.04606 0.319205C8.37733 0.0540501 7.6539 -0.0436265 6.9388 0.0346995C6.2237 0.113026 5.53851 0.364962 4.94303 0.768586C4.34756 1.17221 3.85976 1.71523 3.52214 2.35045C3.18452 2.98568 3.00742 3.69382 3.00602 4.4132C3.007 5.06259 3.15074 5.70387 3.42725 6.29145C3.70376 6.87904 4.1062 7.39859 4.60596 7.81326C3.92477 8.06988 3.29654 8.44948 2.7526 8.93322H0.752604C0.575793 8.93322 0.406274 9.00351 0.28125 9.12853C0.156226 9.25356 0.0859375 9.42307 0.0859375 9.59988V13.3199C0.0859375 13.4967 0.156226 13.6663 0.28125 13.7913C0.406274 13.9163 0.575793 13.9865 0.752604 13.9865H0.799316V19.2465C0.799316 19.4233 0.869605 19.5929 0.994629 19.718C1.11965 19.843 1.28917 19.9132 1.46598 19.9132H22.286C22.4628 19.9132 22.6323 19.843 22.7573 19.718C22.8823 19.5929 22.9526 19.4233 22.9526 19.2465V13.9865H22.9993C23.1762 13.9865 23.3457 13.9163 23.4707 13.7913C23.5957 13.6663 23.666 13.4967 23.666 13.3199V9.59988C23.6662 9.4276 23.5996 9.26193 23.4803 9.13764C23.361 9.01336 23.1982 8.94011 23.026 8.93322ZM22.3594 12.6532H21.1927C20.8833 12.6532 20.5865 12.5303 20.3677 12.3116C20.1489 12.0928 20.026 11.7959 20.026 11.4865C20.026 11.1771 20.1489 10.8804 20.3677 10.6616C20.5865 10.4428 20.8833 10.3199 21.1927 10.3199H22.3594V12.6532ZM14.0726 4.4132C14.0726 3.81458 14.2501 3.22945 14.5827 2.73172C14.9153 2.23399 15.388 1.84606 15.9411 1.61697C16.4941 1.38789 17.1027 1.32791 17.6898 1.44469C18.2769 1.56148 18.8161 1.84978 19.2394 2.27306C19.6627 2.69635 19.9511 3.23567 20.0679 3.82279C20.1847 4.4099 20.1246 5.01843 19.8955 5.57148C19.6664 6.12453 19.2785 6.59723 18.7808 6.9298C18.283 7.26237 17.6979 7.43989 17.0993 7.43989C16.6998 7.44253 16.3038 7.36621 15.9339 7.21536C15.564 7.06452 15.2276 6.84213 14.9438 6.5609C14.6601 6.27968 14.4348 5.94517 14.2808 5.57661C14.1267 5.20805 14.0468 4.81267 14.0459 4.4132H14.0726ZM7.40592 1.38659C8.00454 1.38659 8.58983 1.5641 9.08757 1.89668C9.5853 2.22925 9.97323 2.70194 10.2023 3.255C10.4314 3.80805 10.4913 4.41658 10.3745 5.00369C10.2577 5.59081 9.96951 6.13013 9.54622 6.55342C9.12294 6.9767 8.58354 7.26492 7.99642 7.3817C7.4093 7.49849 6.80077 7.43859 6.24772 7.2095C5.69467 6.98042 5.2219 6.59249 4.88932 6.09476C4.55675 5.59703 4.37923 5.01182 4.37923 4.4132C4.38098 3.61217 4.69951 2.84441 5.2653 2.27738C5.83109 1.71034 6.59823 1.39011 7.39925 1.38659H7.40592ZM1.40592 10.3199H2.57259C2.88201 10.3199 3.17883 10.4428 3.39762 10.6616C3.61642 10.8804 3.73926 11.1771 3.73926 11.4865C3.73926 11.7959 3.61642 12.0928 3.39762 12.3116C3.17883 12.5303 2.88201 12.6532 2.57259 12.6532H1.40592V10.3199ZM2.15267 14.0399H2.57259C3.09488 14.0388 3.6043 13.8775 4.03206 13.5778C4.45983 13.2782 4.78536 12.8544 4.96484 12.364C5.14432 11.8735 5.16913 11.3398 5.03581 10.8348C4.90249 10.3298 4.61743 9.87788 4.21924 9.53991C4.9437 9.07668 5.7861 8.83135 6.646 8.8332H13.266C12.6063 9.38579 12.0757 10.0763 11.7118 10.8561C11.3478 11.6359 11.1593 12.486 11.1593 13.3465V18.6066H5.10596V15.5799C5.10596 15.396 5.03286 15.2197 4.90283 15.0896C4.77281 14.9596 4.59648 14.8866 4.4126 14.8866C4.22871 14.8866 4.05239 14.9596 3.92236 15.0896C3.79234 15.2197 3.71924 15.396 3.71924 15.5799V18.6066H2.13265L2.15267 14.0399ZM21.606 18.6066H20.0127V15.5799C20.0127 15.396 19.9396 15.2197 19.8096 15.0896C19.6795 14.9596 19.5032 14.8866 19.3193 14.8866C19.1355 14.8866 18.9591 14.9596 18.8291 15.0896C18.6991 15.2197 18.626 15.396 18.626 15.5799V18.6066H12.5726V13.3465C12.5752 12.537 12.795 11.7429 13.2088 11.0472C13.6227 10.3514 14.2155 9.77933 14.9256 9.39057C15.6357 9.00182 16.437 8.8106 17.2461 8.83686C18.0552 8.86313 18.8426 9.10591 19.526 9.53991C19.1274 9.87825 18.8423 10.3308 18.7091 10.8365C18.576 11.3421 18.6013 11.8764 18.7816 12.3671C18.9619 12.8579 19.2885 13.2815 19.7173 13.5807C20.1461 13.8798 20.6565 14.0401 21.1794 14.0399H21.606V18.6066Z" fill="#292C3E"/>
</g>
<defs>
<clipPath id="clip0_2811_2688">
<rect width="23.72" height="20" fill="white"/>
</clipPath>
</defs>
</svg>
