<svg width="22" height="22" viewBox="0 0 22 22" fill="none" xmlns="http://www.w3.org/2000/svg">
<g clip-path="url(#clip0_2811_2690)">
<path d="M6.08792 10.9961C6.08537 11.999 6.38916 12.9788 6.95866 13.8044C7.52815 14.6299 8.33607 15.2619 9.27453 15.6157C10.213 15.9695 11.2371 16.0283 12.2099 15.7841C13.1827 15.54 14.0577 15.0047 14.7179 14.2497C15.3781 13.4947 15.7919 12.5561 15.9041 11.5594C16.0163 10.5628 15.8215 9.55561 15.3457 8.67272C14.8699 7.78984 14.1358 7.07331 13.2417 6.61901C12.3475 6.16471 11.336 5.99435 10.3424 6.13064C9.27104 6.25699 8.27661 6.75042 7.52791 7.52704C7.06965 7.98077 6.70624 8.52119 6.45901 9.11679C6.21178 9.7124 6.08569 10.3512 6.08792 10.9961ZM8.38604 8.51612C8.42239 8.67854 8.48636 8.83352 8.57514 8.9743L8.67688 9.17059L8.40788 9.30882C8.07894 9.41502 7.78326 9.60494 7.54992 9.85996C7.31658 10.115 7.15355 10.4263 7.07691 10.7634V10.8506C7.09788 9.84102 7.50989 8.87898 8.22606 8.16704L8.42972 7.98522C8.37182 8.15593 8.35679 8.33825 8.38604 8.51612ZM9.64421 9.09788C9.60352 8.89001 9.52721 8.69076 9.41871 8.50884L9.33153 8.34886C9.33153 8.25432 9.33149 8.16704 9.47695 7.98522C9.63406 7.77448 9.72296 7.52068 9.73156 7.25795C9.96779 7.17957 10.2115 7.12588 10.4588 7.09788C10.6599 7.08736 10.8613 7.08736 11.0624 7.09788C11.3065 7.09109 11.5506 7.11313 11.7896 7.1634C12.0393 7.21938 12.2829 7.29974 12.5169 7.40337C12.3149 7.5795 12.1621 7.80505 12.0734 8.05793C12.0027 8.28895 11.9843 8.53272 12.0196 8.77171C12.0548 9.0107 12.1427 9.23895 12.277 9.43977C12.9534 10.5743 12.7788 11.0107 12.5606 11.3379C12.4359 11.5457 12.3634 11.7807 12.3495 12.0226C12.3355 12.2645 12.3805 12.5062 12.4805 12.727C12.5991 12.9903 12.769 13.2275 12.98 13.4248C13.191 13.622 13.439 13.7755 13.7097 13.8761C13.2975 14.2806 12.8007 14.5886 12.2552 14.7779C12.2588 14.7392 12.2588 14.7002 12.2552 14.6615C12.2636 14.3906 12.1836 14.1242 12.0276 13.9025C11.8715 13.6808 11.6476 13.5159 11.3896 13.4325C11.2806 13.4019 11.1683 13.3847 11.0551 13.3815C10.7998 13.3901 10.5504 13.46 10.3278 13.5852C10.2541 13.6308 10.1729 13.6628 10.0879 13.6797C10.0516 13.6797 9.906 13.6215 9.62237 13.2724C9.52553 13.1347 9.39346 13.0256 9.23991 12.9565C9.08635 12.8874 8.917 12.8609 8.74967 12.8798C8.57133 12.9149 8.40179 12.985 8.25074 13.0862C8.09969 13.1873 7.97015 13.3173 7.8697 13.4688C7.53024 13.0389 7.2827 12.5438 7.14243 12.0143C7.36437 11.9363 7.56054 11.7986 7.70937 11.6164C7.8582 11.4343 7.95386 11.2146 7.986 10.9816C8.066 10.5379 8.37153 10.3924 8.79335 10.1888C8.92426 10.1233 9.06958 10.0507 9.20049 9.97066C9.3575 9.89112 9.48526 9.76366 9.56501 9.60676C9.64477 9.44986 9.67247 9.27161 9.64421 9.09788ZM8.85869 13.8106C9.66597 14.7924 10.2478 14.6179 10.7424 14.3779C10.946 14.2688 10.9896 14.2543 11.0769 14.2833C11.2805 14.3415 11.2733 14.7124 11.2587 14.9015H10.9679C10.0988 14.9186 9.24887 14.6447 8.5533 14.1234C8.63232 13.9991 8.73629 13.8925 8.85869 13.8106ZM13.3969 11.8324C13.9423 11.0106 13.8697 10.1379 13.1424 8.92335C13.083 8.84145 13.0412 8.74804 13.0199 8.64911C12.9986 8.55018 12.9982 8.44796 13.0187 8.34886C13.108 8.15715 13.2592 8.00086 13.4478 7.90515C13.5642 8.00696 13.6878 8.10882 13.7969 8.21791C14.4156 8.84741 14.8083 9.66418 14.9136 10.5405C15.0188 11.4169 14.8308 12.3035 14.3788 13.0616C14.1735 13.0178 13.98 12.9302 13.8118 12.8046C13.6436 12.6791 13.5045 12.5187 13.4041 12.3343C13.3629 12.2573 13.3406 12.1715 13.3393 12.0842C13.3381 11.9969 13.3578 11.9106 13.3969 11.8324Z" fill="#292C3E"/>
<path d="M20.6971 9.37438C20.4508 7.90194 19.8739 6.5045 19.0098 5.28711C19.178 5.02191 19.2664 4.71391 19.2644 4.39986C19.2644 3.95815 19.089 3.53455 18.7766 3.22221C18.4643 2.90988 18.0406 2.73438 17.5989 2.73438C17.2848 2.73232 16.9769 2.82067 16.7116 2.9889C15.4933 2.12656 14.0963 1.5499 12.6245 1.30167C12.542 0.9321 12.336 0.601681 12.0405 0.364879C11.745 0.128078 11.3776 -0.000976562 10.9989 -0.000976562C10.6203 -0.000976562 10.2529 0.128078 9.95739 0.364879C9.6619 0.601681 9.45589 0.9321 9.3734 1.30167C7.90055 1.54648 6.50287 2.12345 5.28622 2.9889C5.02102 2.82067 4.71303 2.73232 4.39897 2.73438C3.95726 2.73438 3.53357 2.90988 3.22124 3.22221C2.9089 3.53455 2.73349 3.95815 2.73349 4.39986C2.73143 4.71391 2.81987 5.02191 2.9881 5.28711C2.124 6.5045 1.54707 7.90194 1.30078 9.37438C0.931212 9.45687 0.600793 9.66288 0.363992 9.95836C0.12719 10.2538 -0.00195312 10.6212 -0.00195312 10.9998C-0.00195312 11.3785 0.12719 11.7459 0.363992 12.0414C0.600793 12.3369 0.931212 12.5428 1.30078 12.6253C1.54559 14.0981 2.12266 15.496 2.9881 16.7126C2.81987 16.9778 2.73143 17.2858 2.73349 17.5999C2.73349 18.0416 2.9089 18.4652 3.22124 18.7775C3.53357 19.0899 3.95726 19.2653 4.39897 19.2653C4.71303 19.2673 5.02102 19.179 5.28622 19.0107C6.50124 19.8791 7.89962 20.4565 9.3734 20.6981C9.45589 21.0676 9.6619 21.3981 9.95739 21.6349C10.2529 21.8717 10.6203 22.0007 10.9989 22.0007C11.3776 22.0007 11.745 21.8717 12.0405 21.6349C12.336 21.3981 12.542 21.0676 12.6245 20.6981C14.0982 20.4565 15.4966 19.8791 16.7116 19.0107C16.9769 19.179 17.2848 19.2673 17.5989 19.2653C18.0406 19.2653 18.4643 19.0899 18.7766 18.7775C19.089 18.4652 19.2644 18.0416 19.2644 17.5999C19.2664 17.2858 19.178 16.9778 19.0098 16.7126C19.2264 16.4066 19.4255 16.0884 19.6062 15.7599C19.6404 15.7036 19.6615 15.6404 19.6678 15.5749C19.6741 15.5094 19.6654 15.4434 19.6426 15.3817C19.6038 15.2687 19.523 15.175 19.4171 15.1199C19.3133 15.0616 19.1925 15.0411 19.0753 15.0617C19.0104 15.0756 18.9493 15.1037 18.8965 15.1439C18.8437 15.1841 18.8005 15.2355 18.7699 15.2944C18.6188 15.5647 18.4538 15.8268 18.2754 16.0798C18.0449 15.9777 17.7942 15.9292 17.5423 15.938C17.2903 15.9469 17.0436 16.0127 16.8208 16.1308L15.7299 15.0471C16.6019 14.052 17.1297 12.8023 17.2353 11.4835H18.7335C18.8059 11.7265 18.9335 11.9494 19.1064 12.1349C19.2792 12.3203 19.4927 12.4633 19.7299 12.5526C19.6423 13.0473 19.5133 13.5339 19.3445 14.0071C19.3198 14.0794 19.3122 14.1564 19.3223 14.2322C19.3324 14.3079 19.3598 14.3801 19.4025 14.4434C19.4469 14.5064 19.5057 14.5578 19.574 14.5932C19.6424 14.6287 19.7183 14.6472 19.7953 14.6471C19.8945 14.6478 19.9915 14.6174 20.0724 14.5599C20.1534 14.5025 20.2142 14.4211 20.2463 14.3272C20.4475 13.7721 20.5983 13.2001 20.6971 12.6181C21.0667 12.5356 21.3971 12.3296 21.6339 12.0341C21.8707 11.7386 21.9998 11.3712 21.9998 10.9925C21.9998 10.6139 21.8707 10.2466 21.6339 9.95108C21.3971 9.6556 21.0667 9.44959 20.6971 9.3671V9.37438ZM17.1044 17.1053C17.1678 17.0378 17.2444 16.9843 17.3295 16.948C17.4147 16.9117 17.5064 16.8935 17.5989 16.8944C17.7538 16.896 17.9042 16.9469 18.0281 17.0399C18.0494 17.0694 18.0765 17.0942 18.108 17.1126C18.1923 17.2503 18.2286 17.4123 18.2108 17.5728C18.1929 17.7333 18.1221 17.8833 18.0096 17.9992C17.8971 18.1151 17.7491 18.1902 17.5891 18.2127C17.4292 18.2352 17.2664 18.2038 17.1262 18.1235L17.068 18.0653C16.9563 17.9283 16.8985 17.7552 16.9052 17.5785C16.9119 17.4018 16.9827 17.2335 17.1044 17.1053ZM20.2825 11.7017C20.1417 11.6904 20.0073 11.6383 19.8956 11.5518C19.7839 11.4654 19.6998 11.3482 19.6536 11.2148C19.6074 11.0813 19.601 10.9372 19.6353 10.8002C19.6696 10.6631 19.7429 10.5391 19.8466 10.4431C19.9502 10.3471 20.0797 10.2834 20.2189 10.2598C20.3582 10.2361 20.5013 10.2535 20.6309 10.3098C20.7604 10.3662 20.8707 10.459 20.9483 10.5771C21.026 10.6951 21.0676 10.8332 21.068 10.9744C21.0685 11.1588 20.999 11.3365 20.8734 11.4715C20.7478 11.6065 20.5756 11.6888 20.3917 11.7017H20.3116H20.2825ZM11.4826 17.1707C12.7926 17.0764 14.0383 16.5669 15.0389 15.7162L16.1298 16.8071C15.9996 17.0483 15.932 17.3185 15.9334 17.5926C15.934 17.8257 15.9837 18.0561 16.079 18.2689C15.0225 19.0036 13.8189 19.4999 12.5517 19.7235C12.4624 19.4862 12.3193 19.2728 12.1339 19.1C11.9484 18.9271 11.7256 18.7995 11.4826 18.7271V17.1707ZM10.2971 20.3417C10.3044 20.3131 10.3044 20.2831 10.2971 20.2544C10.3084 20.1136 10.3604 19.9792 10.4469 19.8675C10.5334 19.7558 10.6506 19.6716 10.7841 19.6254C10.9176 19.5791 11.0617 19.5728 11.1987 19.6071C11.3357 19.6414 11.4598 19.7148 11.5558 19.8185C11.6517 19.9221 11.7153 20.0515 11.739 20.1908C11.7627 20.3301 11.7453 20.4732 11.6889 20.6027C11.6326 20.7323 11.5397 20.8426 11.4217 20.9202C11.3037 20.9978 11.1656 21.0394 11.0243 21.0399C10.8411 21.0405 10.6645 20.9719 10.5297 20.8478C10.3948 20.7238 10.3117 20.5534 10.2971 20.3707V20.3417ZM11.0243 2.37074C10.8805 2.37074 10.74 2.32814 10.6204 2.24822C10.5008 2.16831 10.4075 2.05468 10.3525 1.92179C10.2974 1.78889 10.283 1.64268 10.3111 1.5016C10.3391 1.36052 10.4084 1.23097 10.5101 1.12926C10.6118 1.02755 10.7414 0.958282 10.8825 0.93022C11.0235 0.902158 11.1698 0.916545 11.3027 0.971591C11.4356 1.02664 11.5492 1.11984 11.6291 1.23944C11.709 1.35903 11.7516 1.49963 11.7516 1.64347C11.7516 1.74084 11.7322 1.83725 11.6942 1.92694C11.6563 2.01663 11.6009 2.09783 11.5311 2.16566C11.4612 2.23349 11.3784 2.28658 11.2876 2.32182C11.1969 2.35706 11.1 2.37366 11.0027 2.37074H11.0243ZM10.5226 4.77805C10.1795 4.80836 9.83919 4.86425 9.50444 4.94531C9.42496 4.96343 9.35188 5.00278 9.29297 5.05913C9.23406 5.11548 9.19155 5.18667 9.16992 5.26527C9.1487 5.35154 9.14873 5.44169 9.17028 5.52788C9.19182 5.61407 9.23418 5.69372 9.2935 5.75986C9.35182 5.81714 9.42422 5.85804 9.50338 5.87846C9.58253 5.89889 9.66556 5.89815 9.74432 5.87624C10.6148 5.65082 11.5285 5.65082 12.399 5.87624C13.5183 6.17624 14.5074 6.83711 15.2129 7.75639C15.9184 8.67568 16.301 9.80203 16.3013 10.9608C16.3016 12.1197 15.9195 13.2462 15.2145 14.1658C14.5094 15.0855 13.5208 15.7468 12.4016 16.0474C11.2825 16.348 10.0954 16.271 9.0245 15.8283C7.95357 15.3856 7.05847 14.602 6.47816 13.599C5.89785 12.5959 5.6646 11.4295 5.81463 10.2805C5.96467 9.13139 6.48966 8.06393 7.30806 7.24352C7.59769 6.94492 7.92524 6.68568 8.28249 6.47257C8.35202 6.4299 8.40936 6.37002 8.44886 6.29865C8.48837 6.22728 8.50874 6.14691 8.50799 6.06534C8.50309 5.9769 8.47586 5.8911 8.4288 5.81605C8.38174 5.74101 8.31648 5.67911 8.23899 5.63619C8.17477 5.5992 8.10216 5.57921 8.02806 5.57804C7.9406 5.57965 7.85512 5.60475 7.78072 5.65075C7.48032 5.83541 7.19577 6.04459 6.92987 6.27619L5.84624 5.19256C5.96762 4.97125 6.03659 4.72508 6.04794 4.47292C6.05929 4.22077 6.01277 3.96934 5.91176 3.73802C6.96823 3.00332 8.17166 2.50702 9.43892 2.28347C9.52953 2.51752 9.67126 2.72847 9.85369 2.90083C10.0361 3.0732 10.2546 3.20264 10.4934 3.27983L10.5226 4.77805ZM15.0898 6.2326C14.0696 5.36276 12.7921 4.85176 11.4535 4.77805V3.27255C11.701 3.20188 11.9285 3.07438 12.1179 2.90012C12.3073 2.72586 12.4534 2.50966 12.5444 2.26891C13.8117 2.49246 15.0153 2.98876 16.0717 3.72346C15.9764 3.93624 15.9267 4.16671 15.9261 4.39986C15.9248 4.67399 15.9923 4.94404 16.1225 5.18528L15.0898 6.2326ZM3.92614 17.0907C3.9895 17.0233 4.06633 16.9697 4.15146 16.9334C4.23658 16.8971 4.32827 16.8789 4.42081 16.8799C4.61369 16.8799 4.79862 16.9565 4.93501 17.0929C5.0714 17.2293 5.14808 17.4143 5.14808 17.6072C5.14734 17.7944 5.07437 17.9741 4.94443 18.1089C4.80955 18.2358 4.63134 18.3064 4.4462 18.3064C4.26107 18.3064 4.08286 18.2358 3.94798 18.1089C3.81536 17.9753 3.73973 17.7954 3.73704 17.6072C3.72935 17.5165 3.74024 17.4252 3.769 17.339C3.79776 17.2527 3.84395 17.1732 3.90447 17.1053L3.92614 17.0907ZM4.42081 15.9198C4.18766 15.9204 3.95711 15.97 3.74432 16.0653C3.00962 15.0089 2.51332 13.8053 2.28977 12.538C2.52413 12.45 2.73564 12.3101 2.9082 12.1287C3.08076 11.9474 3.20997 11.7292 3.28622 11.4908H4.86435C4.97517 12.7881 5.48306 14.0197 6.31889 15.018L5.20614 16.1308C4.95819 15.9976 4.6804 15.93 4.39897 15.9344L4.42081 15.9198ZM4.92259 4.88716C4.78771 5.01398 4.6095 5.08452 4.42436 5.08452C4.23923 5.08452 4.06102 5.01398 3.92614 4.88716C3.79353 4.7535 3.71807 4.57357 3.71538 4.3853C3.71538 4.19241 3.79188 4.00748 3.92827 3.87109C4.06466 3.7347 4.24976 3.65803 4.44265 3.65803C4.63553 3.65803 4.82046 3.7347 4.95685 3.87109C5.09324 4.00748 5.16992 4.19241 5.16992 4.3853C5.16487 4.48416 5.13965 4.58096 5.09588 4.66974C5.05211 4.75853 4.99064 4.83742 4.91531 4.90163L4.92259 4.88716ZM5.19158 5.86168L6.28977 6.95987C5.44577 7.96737 4.93728 9.21319 4.83523 10.5235H3.27166C3.19996 10.2765 3.07203 10.0495 2.89791 9.86026C2.72378 9.671 2.50827 9.52462 2.26811 9.43262C2.49166 8.16536 2.98796 6.96175 3.72266 5.90527C3.95081 6.00862 4.19916 6.05963 4.44957 6.0546C4.69999 6.04957 4.94611 5.98867 5.16992 5.87624L5.19158 5.86168ZM2.39169 10.9526C2.39169 11.0964 2.34909 11.237 2.26918 11.3566C2.18926 11.4762 2.07554 11.5694 1.94265 11.6245C1.80976 11.6795 1.66363 11.6939 1.52255 11.6658C1.38147 11.6378 1.25192 11.5685 1.15021 11.4668C1.0485 11.3651 0.979234 11.2355 0.951172 11.0945C0.92311 10.9534 0.937497 10.8072 0.992543 10.6743C1.04759 10.5414 1.1407 10.4277 1.2603 10.3478C1.3799 10.2679 1.52058 10.2253 1.66442 10.2253C1.76251 10.228 1.85899 10.2506 1.94815 10.2915C2.03731 10.3325 2.11733 10.3912 2.18324 10.4639C2.24915 10.5366 2.2996 10.6218 2.33168 10.7146C2.36375 10.8073 2.37676 10.9056 2.36985 11.0035L2.39169 10.9526ZM10.5444 17.1126V18.6908C10.2998 18.7617 10.0752 18.8886 9.88832 19.0616C9.70146 19.2346 9.55756 19.4488 9.46804 19.6871C8.20117 19.4623 6.99784 18.9661 5.9407 18.2326C6.0445 18.0028 6.09456 17.7523 6.087 17.5003C6.07944 17.2482 6.01459 17.0012 5.8972 16.7781L7.02433 15.658C8.00019 16.5198 9.22587 17.0473 10.5226 17.1635L10.5444 17.1126ZM18.1225 4.85076C17.9876 4.97758 17.8096 5.04821 17.6245 5.04821C17.4393 5.04821 17.2611 4.97758 17.1262 4.85076C16.9936 4.7171 16.918 4.53726 16.9153 4.34899C16.9153 4.1561 16.992 3.97109 17.1284 3.8347C17.2648 3.6983 17.4497 3.62172 17.6426 3.62172C17.8355 3.62172 18.0204 3.6983 18.1568 3.8347C18.2932 3.97109 18.3699 4.1561 18.3699 4.34899C18.3681 4.45518 18.343 4.55961 18.2965 4.6551C18.25 4.75059 18.1832 4.83474 18.1007 4.90163L18.1225 4.85076ZM18.2971 5.86896C19.0317 6.92544 19.5281 8.12896 19.7516 9.39622C19.5069 9.48326 19.2869 9.62781 19.1097 9.81765C18.9326 10.0075 18.8035 10.2371 18.7335 10.4871H17.2207C17.1366 9.16607 16.6262 7.9079 15.7662 6.90163L16.8279 5.83984C17.0476 5.96138 17.2918 6.03169 17.5424 6.04554C17.7931 6.0594 18.0437 6.01642 18.2754 5.91983L18.2971 5.86896Z" fill="#292C3E"/>
</g>
<defs>
<clipPath id="clip0_2811_2690">
<rect width="22" height="22" fill="white"/>
</clipPath>
</defs>
</svg>
