<svg width="24" height="20" viewBox="0 0 24 20" fill="none" xmlns="http://www.w3.org/2000/svg">
<g clip-path="url(#clip0_2811_2682)">
<path d="M1.48665 19.9998C1.09291 19.9981 0.715762 19.8409 0.437337 19.5625C0.158912 19.2841 0.00175392 18.9069 0 18.5132V6.26652C0.00176123 5.45019 0.326903 4.66781 0.904134 4.09058C1.48136 3.51335 2.26375 3.18828 3.08008 3.18652H17.6134C18.4309 3.18652 19.2149 3.51079 19.7936 4.08822C20.3723 4.66564 20.6983 5.44904 20.7 6.26652V14.4265C20.7009 14.8319 20.6219 15.2334 20.4676 15.6082C20.3133 15.9831 20.0866 16.3238 19.8006 16.6111C19.5146 16.8983 19.1749 17.1265 18.8008 17.2824C18.4266 17.4383 18.0253 17.519 17.62 17.5199H5.5C5.36334 17.5221 5.23064 17.5664 5.11995 17.6466L2.38672 19.7065C2.12786 19.902 1.81098 20.0052 1.48665 19.9998ZM3.08008 4.77987C2.68687 4.78335 2.31077 4.9411 2.03271 5.21916C1.75466 5.49721 1.5969 5.87331 1.59342 6.26652V18.3132L4.16667 16.3732C4.55165 16.0851 5.01913 15.9284 5.5 15.9265H17.6134C17.8101 15.9265 18.0047 15.8877 18.1864 15.8123C18.368 15.7368 18.533 15.6262 18.6717 15.4868C18.8105 15.3474 18.9203 15.182 18.995 15.0001C19.0696 14.8181 19.1076 14.6232 19.1068 14.4265V6.26652C19.105 5.87277 18.9477 5.49571 18.6693 5.21729C18.3908 4.93886 18.0137 4.78162 17.62 4.77987H3.08008Z" fill="#292C3E"/>
<path d="M13.4867 11.2131C13.9248 11.2131 14.28 10.8579 14.28 10.4198C14.28 9.98165 13.9248 9.62646 13.4867 9.62646C13.0485 9.62646 12.6934 9.98165 12.6934 10.4198C12.6934 10.8579 13.0485 11.2131 13.4867 11.2131Z" fill="#292C3E"/>
<path d="M10.4008 11.2131C10.8389 11.2131 11.1941 10.8579 11.1941 10.4198C11.1941 9.98165 10.8389 9.62646 10.4008 9.62646C9.96261 9.62646 9.60742 9.98165 9.60742 10.4198C9.60742 10.8579 9.96261 11.2131 10.4008 11.2131Z" fill="#292C3E"/>
<path d="M7.21325 11.2131C7.6514 11.2131 8.00659 10.8579 8.00659 10.4198C8.00659 9.98165 7.6514 9.62646 7.21325 9.62646C6.77511 9.62646 6.41992 9.98165 6.41992 10.4198C6.41992 10.8579 6.77511 11.2131 7.21325 11.2131Z" fill="#292C3E"/>
<path d="M23.0933 11.9466C22.8811 11.9466 22.6775 11.8623 22.5275 11.7123C22.3775 11.5623 22.2931 11.3588 22.2931 11.1466V3.08658C22.2914 2.69221 22.1345 2.31439 21.8563 2.0349C21.578 1.75541 21.2008 1.59675 20.8065 1.59325H4.80648C4.69573 1.60339 4.58409 1.59035 4.47868 1.55492C4.37326 1.51949 4.27648 1.46249 4.19434 1.38752C4.11219 1.31256 4.04652 1.22128 4.00163 1.11954C3.95674 1.01779 3.93359 0.907827 3.93359 0.796619C3.93359 0.685411 3.95674 0.575447 4.00163 0.473703C4.04652 0.371958 4.11219 0.280683 4.19434 0.205718C4.27648 0.130753 4.37326 0.0737451 4.47868 0.0383187C4.58409 0.00289224 4.69573 -0.0102341 4.80648 -9.27991e-05H20.8065C21.6234 0.00342663 22.4059 0.329982 22.9829 0.908273C23.56 1.48656 23.8848 2.26963 23.8866 3.08658V11.1466C23.8866 11.3577 23.8032 11.5601 23.6546 11.7099C23.506 11.8598 23.3043 11.9448 23.0933 11.9466Z" fill="#292C3E"/>
</g>
<defs>
<clipPath id="clip0_2811_2682">
<rect width="23.8867" height="20" fill="white"/>
</clipPath>
</defs>
</svg>
