<svg width="17" height="20" viewBox="0 0 17 20" fill="none" xmlns="http://www.w3.org/2000/svg">
<g clip-path="url(#clip0_2811_3394)">
<path d="M14.4135 10.1335C14.2666 10.0064 14.0772 9.93926 13.883 9.94537C13.6889 9.95148 13.5042 10.0304 13.3656 10.1665C13.227 10.3026 13.1448 10.4858 13.1352 10.6798C13.1255 10.8738 13.189 11.0643 13.3134 11.2135C13.9673 11.8546 14.4859 12.6204 14.8386 13.4655C15.1913 14.3106 15.3709 15.2178 15.3668 16.1335C15.3668 17.0735 12.6668 18.4402 8.44018 18.4402C4.21351 18.4402 1.52009 17.0735 1.52009 16.1268C1.51326 15.2195 1.68655 14.3197 2.02986 13.4798C2.37316 12.6398 2.87966 11.8764 3.52009 11.2335C3.59232 11.1631 3.64993 11.079 3.68969 10.9862C3.72945 10.8935 3.75063 10.7938 3.75186 10.6929C3.7531 10.592 3.73448 10.4919 3.69701 10.3982C3.65954 10.3045 3.60392 10.2191 3.53344 10.1469C3.46296 10.0746 3.37896 10.0169 3.28621 9.97719C3.19345 9.93743 3.09382 9.91633 2.99291 9.9151C2.89201 9.91386 2.79185 9.93256 2.69815 9.97003C2.60445 10.0075 2.51908 10.063 2.44685 10.1335C1.65667 10.9195 1.03046 11.8547 0.604728 12.8847C0.178992 13.9147 -0.0377735 15.019 -0.0331301 16.1335C-0.0331301 18.6269 4.32683 19.9802 8.42683 19.9802C12.5268 19.9802 16.8868 18.6469 16.8868 16.1335C16.8942 15.0192 16.6792 13.9146 16.2545 12.8843C15.8298 11.8541 15.204 10.9189 14.4135 10.1335Z" fill="#292C3E"/>
<path d="M8.46012 10.7665C9.52579 10.7678 10.5679 10.4531 11.4546 9.86197C12.3413 9.27087 13.0327 8.43004 13.4414 7.44587C13.8501 6.4617 13.9577 5.37843 13.7507 4.33308C13.5436 3.28773 13.0311 2.32723 12.278 1.57323C11.5249 0.819223 10.5651 0.305541 9.52002 0.0971546C8.47493 -0.111232 7.39157 -0.00493288 6.4069 0.402575C5.42223 0.810082 4.58047 1.50048 3.98828 2.38646C3.39609 3.27244 3.08008 4.3142 3.08008 5.37987C3.08008 6.80735 3.64668 8.17642 4.65544 9.18643C5.66419 10.1964 7.03265 10.7647 8.46012 10.7665ZM8.46012 1.53319C9.22092 1.53319 9.96459 1.75879 10.5972 2.18146C11.2297 2.60414 11.7227 3.2049 12.0138 3.90778C12.305 4.61067 12.3812 5.3841 12.2327 6.13028C12.0843 6.87646 11.718 7.56187 11.18 8.09984C10.642 8.63781 9.95663 9.00415 9.21045 9.15257C8.46427 9.301 7.69084 9.22489 6.98796 8.93374C6.28507 8.6426 5.6844 8.14949 5.26172 7.51691C4.83904 6.88433 4.61344 6.14067 4.61344 5.37987C4.61257 4.87416 4.71138 4.37322 4.9043 3.90575C5.09722 3.43828 5.38035 3.01341 5.73763 2.6555C6.09491 2.2976 6.51936 2.0137 6.98649 1.81997C7.45363 1.62624 7.95441 1.52652 8.46012 1.52652V1.53319Z" fill="#292C3E"/>
</g>
<defs>
<clipPath id="clip0_2811_3394">
<rect width="16.92" height="20" fill="white"/>
</clipPath>
</defs>
</svg>
