<svg width="20" height="20" viewBox="0 0 20 20" fill="none" xmlns="http://www.w3.org/2000/svg">
<g clip-path="url(#clip0_1540_7667)">
<path d="M10.8134 0C5.77109 0 1.65763 4.06667 1.65763 9.13333C1.65763 11.3333 2.45379 13.4 3.71436 14.9333L0.198017 18.4667C-0.133714 18.8 -0.133714 19.3333 0.198017 19.6667C0.397055 19.9333 0.66244 20 0.861478 20C1.06052 20 1.3259 19.9333 1.45859 19.7333L4.97494 16.2C6.56725 17.5333 8.55763 18.2667 10.7471 18.2667C15.7894 18.2667 19.8365 14.2 19.8365 9.13333C19.8365 4.06667 15.8557 0 10.8134 0ZM15.9884 14.4C14.5951 15.8 12.7374 16.6 10.7471 16.6C8.75667 16.6 6.89898 15.8 5.50571 14.4C4.11244 13 3.31629 11.1333 3.31629 9.13333C3.31629 7.13333 4.17879 5.33333 5.57206 3.93333C6.96532 2.53333 8.82302 1.73333 10.8134 1.73333C12.8038 1.73333 14.6615 2.53333 16.0547 3.93333C17.448 5.33333 18.2442 7.2 18.2442 9.2C18.2442 11.2 17.3817 13 15.9884 14.4Z" fill="#292C3E"/>
</g>
<defs>
<clipPath id="clip0_1540_7667">
<rect width="19.9038" height="20" fill="white"/>
</clipPath>
</defs>
</svg>
