<svg width="20" height="20" viewBox="0 0 20 20" fill="none" xmlns="http://www.w3.org/2000/svg">
<g clip-path="url(#clip0_2811_2693)">
<path d="M18.8139 11.5868L17.9805 10.9202C17.8477 10.8101 17.7408 10.6721 17.6674 10.516C17.594 10.3598 17.5559 10.1894 17.5559 10.0168C17.5559 9.84433 17.594 9.67396 17.6674 9.51782C17.7408 9.36169 17.8477 9.22363 17.9805 9.11353L18.8139 8.44686C19.1029 8.21149 19.2981 7.88038 19.3642 7.51351C19.4302 7.14664 19.3627 6.76825 19.1739 6.44686L17.5272 3.60018C17.3403 3.28251 17.0469 3.0413 16.6991 2.91927C16.3513 2.79724 15.9716 2.80228 15.6272 2.93351L14.6205 3.31356C14.4584 3.3739 14.2849 3.3976 14.1125 3.38306C13.9402 3.36852 13.7731 3.31606 13.6234 3.22941C13.4737 3.14277 13.3451 3.02413 13.2466 2.88192C13.1482 2.73971 13.0822 2.57744 13.0538 2.40682L12.8738 1.34017C12.8208 0.969689 12.6359 0.630796 12.3529 0.385825C12.07 0.140854 11.7081 0.00627756 11.3339 0.00683768H8.0471C7.67284 0.00627756 7.31099 0.140854 7.02805 0.385825C6.74511 0.630796 6.56023 0.969689 6.50722 1.34017L6.32721 2.40682C6.29876 2.57744 6.23282 2.73971 6.13434 2.88192C6.03586 3.02413 5.90726 3.14277 5.75755 3.22941C5.60783 3.31606 5.44082 3.36852 5.26845 3.38306C5.09609 3.3976 4.92259 3.3739 4.76048 3.31356L3.7538 2.93351C3.40939 2.80228 3.02965 2.79724 2.68186 2.91927C2.33408 3.0413 2.04081 3.28251 1.8539 3.60018L0.207091 6.44686C0.0196059 6.76862 -0.0470316 7.1466 0.0189396 7.5131C0.0849107 7.87961 0.279202 8.21067 0.567117 8.44686L1.40045 9.11353C1.53433 9.22295 1.64228 9.36078 1.71637 9.51701C1.79045 9.67324 1.82884 9.84394 1.82884 10.0168C1.82884 10.1898 1.79045 10.3605 1.71637 10.5168C1.64228 10.673 1.53433 10.8107 1.40045 10.9202L0.567117 11.5868C0.279202 11.823 0.0849107 12.1541 0.0189396 12.5206C-0.0470316 12.8871 0.0196059 13.2651 0.207091 13.5868L1.8539 16.4335C2.03885 16.7532 2.33208 16.9961 2.68056 17.1184C3.02904 17.2407 3.40967 17.2342 3.7538 17.1002L4.76048 16.7269C4.92205 16.6653 5.09525 16.6403 5.26764 16.6539C5.44002 16.6675 5.60728 16.7192 5.75722 16.8053C5.90716 16.8915 6.03609 17.0099 6.13466 17.1519C6.23323 17.294 6.29903 17.4563 6.32721 17.6269L6.50722 18.6935C6.56154 19.0634 6.74687 19.4015 7.02952 19.6462C7.31217 19.891 7.67323 20.026 8.0471 20.0269H11.3339C11.7078 20.026 12.0688 19.891 12.3515 19.6462C12.6341 19.4015 12.8194 19.0634 12.8738 18.6935L13.0538 17.6269C13.082 17.4563 13.1477 17.294 13.2463 17.1519C13.3449 17.0099 13.4738 16.8915 13.6238 16.8053C13.7737 16.7192 13.941 16.6675 14.1133 16.6539C14.2857 16.6403 14.4589 16.6653 14.6205 16.7269L15.6272 17.1002C15.9713 17.2342 16.3521 17.2407 16.7006 17.1184C17.0491 16.9961 17.3423 16.7532 17.5272 16.4335L19.1739 13.5868C19.3627 13.2654 19.4302 12.8871 19.3642 12.5202C19.2981 12.1533 19.1029 11.8222 18.8139 11.5868ZM16.1472 15.6402L15.1405 15.2602C14.7626 15.1177 14.3578 15.061 13.9553 15.094C13.5528 15.127 13.1626 15.249 12.813 15.4513C12.4635 15.6535 12.1633 15.9308 11.934 16.2633C11.7047 16.5957 11.5521 16.9749 11.4872 17.3735L11.3072 18.4335H8.02057L7.84723 17.3735C7.78034 16.9753 7.62617 16.5967 7.39589 16.2649C7.16561 15.9331 6.86477 15.6565 6.51503 15.4545C6.1653 15.2526 5.77539 15.1304 5.37294 15.0968C4.97049 15.0633 4.5656 15.119 4.18723 15.2602L3.18056 15.6402L1.53375 12.7935L2.36708 12.1269C2.67848 11.8704 2.92929 11.5482 3.10146 11.1834C3.27363 10.8186 3.36301 10.4202 3.36301 10.0168C3.36301 9.61346 3.27363 9.21507 3.10146 8.85026C2.92929 8.48546 2.67848 8.16325 2.36708 7.90682L1.53375 7.24016L3.18056 4.39356L4.18723 4.77352C4.56554 4.91595 4.97071 4.97272 5.37359 4.9397C5.77647 4.90668 6.16692 4.78465 6.51699 4.58252C6.86705 4.38039 7.168 4.10317 7.39801 3.77075C7.62802 3.43834 7.78146 3.059 7.84723 2.66016L8.02057 1.60018H11.3072L11.4872 2.66016C11.5532 3.05819 11.7065 3.4367 11.9361 3.76848C12.1657 4.10025 12.4658 4.37708 12.815 4.5791C13.1642 4.78113 13.5539 4.90332 13.956 4.93693C14.358 4.97054 14.7626 4.91475 15.1405 4.77352L16.1472 4.39356L17.7938 7.24016L16.9605 7.90682C16.6491 8.16325 16.3983 8.48546 16.2261 8.85026C16.054 9.21507 15.9647 9.61346 15.9647 10.0168C15.9647 10.4202 16.054 10.8186 16.2261 11.1834C16.3983 11.5482 16.6491 11.8704 16.9605 12.1269L17.7938 12.7935L16.1472 15.6402ZM9.66721 6.14022C8.90349 6.1389 8.15654 6.3641 7.52089 6.78744C6.88524 7.21078 6.38943 7.81319 6.09625 8.51839C5.80307 9.2236 5.72573 9.9999 5.87392 10.7491C6.0221 11.4983 6.38921 12.1868 6.92877 12.7273C7.46833 13.2678 8.15606 13.6361 8.90501 13.7856C9.65395 13.935 10.4304 13.8589 11.1361 13.567C11.8418 13.275 12.4451 12.7803 12.8695 12.1453C13.294 11.5104 13.5206 10.7639 13.5206 10.0002C13.5189 8.98271 13.1161 8.00699 12.3998 7.28443C11.6835 6.56186 10.7113 6.15074 9.69391 6.14022H9.66721ZM9.66721 12.2869C9.21307 12.2882 8.76868 12.1546 8.39052 11.9032C8.01236 11.6517 7.71743 11.2935 7.54303 10.8742C7.36862 10.4549 7.32259 9.99326 7.41087 9.54777C7.49914 9.10229 7.71767 8.69304 8.0388 8.37191C8.35993 8.05078 8.76926 7.83226 9.21474 7.74398C9.66022 7.6557 10.1219 7.70166 10.5412 7.87606C10.9606 8.05046 11.3186 8.3454 11.57 8.72355C11.8215 9.10171 11.9552 9.54602 11.9538 10.0002C11.9522 10.6015 11.7143 11.1782 11.2916 11.6059C10.8688 12.0336 10.2952 12.2781 9.69391 12.2869H9.66721Z" fill="#292C3E"/>
</g>
<defs>
<clipPath id="clip0_2811_2693">
<rect width="19.3867" height="20" fill="white"/>
</clipPath>
</defs>
</svg>
