<svg width="23" height="30" viewBox="0 0 23 30" fill="none" xmlns="http://www.w3.org/2000/svg">
<g clip-path="url(#clip0_2877_4155)">
<path d="M15.6899 1.84C15.1108 1.25444 14.4208 0.790203 13.6602 0.474282C12.8995 0.158361 12.0836 -0.00287943 11.26 3.89176e-05C9.59618 3.68082e-05 8.00032 0.660288 6.82288 1.83585C5.64543 3.01142 4.98263 4.60623 4.97998 6.27006V7.54008H3.45996C2.54221 7.54535 1.66365 7.91289 1.01562 8.56278C0.367601 9.21268 0.00262213 10.0923 0 11.01V23.01C0 24.8666 0.737416 26.647 2.05017 27.9598C3.36293 29.2725 5.14348 30.01 7 30.01H15.49C17.3465 30.01 19.1269 29.2725 20.4397 27.9598C21.7525 26.647 22.49 24.8666 22.49 23.01V11.01C22.4874 10.0906 22.1209 9.20942 21.4707 8.55924C20.8205 7.90906 19.9394 7.54272 19.0199 7.54008H17.5699V6.24003C17.5637 5.41865 17.3943 4.6067 17.0715 3.85136C16.7488 3.09601 16.2791 2.41231 15.6899 1.84ZM6.85999 6.27006C6.86263 5.10657 7.32597 3.99145 8.14868 3.16874C8.97139 2.34603 10.0865 1.88269 11.25 1.88004C12.4135 1.88269 13.5285 2.34603 14.3512 3.16874C15.1739 3.99145 15.6373 5.10657 15.6399 6.27006V7.54008H6.84998L6.85999 6.27006ZM18.98 9.42997C19.3999 9.42996 19.8028 9.59611 20.1007 9.89213C20.3986 10.1882 20.5673 10.5901 20.5699 11.01V23.01C20.5673 24.3618 20.0291 25.6575 19.0732 26.6133C18.1174 27.5692 16.8218 28.1074 15.47 28.11H6.97998C5.62819 28.1074 4.33245 27.5692 3.37659 26.6133C2.42072 25.6575 1.88265 24.3618 1.88 23.01V11.01C1.88 10.591 2.04647 10.1892 2.34277 9.89286C2.63908 9.59655 3.04092 9.42997 3.45996 9.42997H18.98Z" fill="#292C3E"/>
<path d="M5.91992 11.35C5.67062 11.35 5.43153 11.4491 5.25525 11.6254C5.07896 11.8017 4.97998 12.0407 4.97998 12.29V14.5C4.97998 16.1656 5.64161 17.7629 6.81934 18.9407C7.99706 20.1184 9.59445 20.78 11.26 20.78C12.9238 20.7774 14.5185 20.1146 15.6941 18.9371C16.8697 17.7597 17.5299 16.1638 17.5299 14.5V12.29C17.5299 12.0407 17.4309 11.8017 17.2546 11.6254C17.0784 11.4491 16.8393 11.35 16.59 11.35C16.3407 11.35 16.1016 11.4491 15.9253 11.6254C15.749 11.8017 15.6499 12.0407 15.6499 12.29V14.5C15.6499 15.6652 15.1877 16.7829 14.3647 17.6078C13.5417 18.4327 12.4252 18.8974 11.26 18.9C10.0939 18.8974 8.9762 18.433 8.15161 17.6084C7.32702 16.7838 6.86263 15.6661 6.85999 14.5V12.29C6.85999 12.0407 6.76088 11.8017 6.58459 11.6254C6.40831 11.4491 6.16923 11.35 5.91992 11.35Z" fill="#292C3E"/>
</g>
<defs>
<clipPath id="clip0_2877_4155">
<rect width="22.45" height="30" fill="white"/>
</clipPath>
</defs>
</svg>
